<?xml version="1.0" encoding="UTF-8" standalone="no"?>
<!-- Created with Inkscape (http://www.inkscape.org/) -->

<svg
   version="1.1"
   id="svg16252"
   width="793.33331"
   height="1122.6667"
   viewBox="0 0 793.33331 1122.6667"
   xmlns="http://www.w3.org/2000/svg"
   xmlns:svg="http://www.w3.org/2000/svg">
  <defs
     id="defs16256">
    <clipPath
       clipPathUnits="userSpaceOnUse"
       id="clipPath16294">
      <path
         d="M 2686,5027 H 7231 V 9006 H 2686 Z"
         clip-rule="evenodd"
         id="path16292" />
    </clipPath>
    <clipPath
       clipPathUnits="userSpaceOnUse"
       id="clipPath17094">
      <g
         id="g17102">
        <g
           id="g17100"
           transform="translate(0,2e-5)">
          <g
             id="g17098"
             transform="translate(0,2e-5)">
            <path
               d="M 11.88,830.12 H 583.14 V 11.9 H 11.88 Z"
               clip-rule="evenodd"
               id="path17096"
               style="stroke-width:0.06" />
          </g>
        </g>
      </g>
    </clipPath>
    <clipPath
       clipPathUnits="userSpaceOnUse"
       id="clipPath17104">
      <g
         id="g17112">
        <g
           id="g17110"
           transform="translate(0,2e-5)">
          <g
             id="g17108"
             transform="translate(0,2e-5)">
            <path
               d="M 11.88,830.12 H 583.14 V 11.9 H 11.88 Z"
               clip-rule="evenodd"
               id="path17106"
               style="stroke-width:0.06" />
          </g>
        </g>
      </g>
    </clipPath>
    <clipPath
       clipPathUnits="userSpaceOnUse"
       id="clipPath17114">
      <g
         id="g17122">
        <g
           id="g17120"
           transform="translate(0,2e-5)">
          <g
             id="g17118"
             transform="translate(0,2e-5)">
            <path
               d="M 11.88,830.12 H 583.14 V 11.9 H 11.88 Z"
               clip-rule="evenodd"
               id="path17116"
               style="stroke-width:0.06" />
          </g>
        </g>
      </g>
    </clipPath>
    <clipPath
       clipPathUnits="userSpaceOnUse"
       id="clipPath17124">
      <g
         id="g17132">
        <g
           id="g17130"
           transform="translate(0,2e-5)">
          <g
             id="g17128"
             transform="translate(0,2e-5)">
            <path
               d="M 11.88,830.12 H 583.14 V 11.9 H 11.88 Z"
               clip-rule="evenodd"
               id="path17126"
               style="stroke-width:0.06" />
          </g>
        </g>
      </g>
    </clipPath>
    <clipPath
       clipPathUnits="userSpaceOnUse"
       id="clipPath17134">
      <g
         id="g17142">
        <g
           id="g17140"
           transform="translate(0,2e-5)">
          <g
             id="g17138"
             transform="translate(0,2e-5)">
            <path
               d="M 11.88,830.12 H 583.14 V 11.9 H 11.88 Z"
               clip-rule="evenodd"
               id="path17136"
               style="stroke-width:0.06" />
          </g>
        </g>
      </g>
    </clipPath>
    <clipPath
       clipPathUnits="userSpaceOnUse"
       id="clipPath17144">
      <g
         id="g17152">
        <g
           id="g17150"
           transform="translate(0,2e-5)">
          <g
             id="g17148"
             transform="translate(0,2e-5)">
            <path
               d="M 11.88,830.12 H 583.14 V 11.9 H 11.88 Z"
               clip-rule="evenodd"
               id="path17146"
               style="stroke-width:0.06" />
          </g>
        </g>
      </g>
    </clipPath>
    <clipPath
       clipPathUnits="userSpaceOnUse"
       id="clipPath17154">
      <g
         id="g17162">
        <g
           id="g17160"
           transform="translate(0,2e-5)">
          <g
             id="g17158"
             transform="translate(0,2e-5)">
            <path
               d="M 11.88,830.12 H 583.14 V 11.9 H 11.88 Z"
               clip-rule="evenodd"
               id="path17156"
               style="stroke-width:0.06" />
          </g>
        </g>
      </g>
    </clipPath>
    <clipPath
       clipPathUnits="userSpaceOnUse"
       id="clipPath17164">
      <g
         id="g17172">
        <g
           id="g17170"
           transform="translate(0,2e-5)">
          <g
             id="g17168"
             transform="translate(0,2e-5)">
            <path
               d="M 11.88,830.12 H 583.14 V 11.9 H 11.88 Z"
               clip-rule="evenodd"
               id="path17166"
               style="stroke-width:0.06" />
          </g>
        </g>
      </g>
    </clipPath>
    <clipPath
       clipPathUnits="userSpaceOnUse"
       id="clipPath17174">
      <g
         id="g17182">
        <g
           id="g17180"
           transform="translate(0,2e-5)">
          <g
             id="g17178"
             transform="translate(0,2e-5)">
            <path
               d="M 11.88,830.12 H 583.14 V 11.9 H 11.88 Z"
               clip-rule="evenodd"
               id="path17176"
               style="stroke-width:0.06" />
          </g>
        </g>
      </g>
    </clipPath>
    <clipPath
       clipPathUnits="userSpaceOnUse"
       id="clipPath17184">
      <g
         id="g17192">
        <g
           id="g17190"
           transform="translate(0,2e-5)">
          <g
             id="g17188"
             transform="translate(0,2e-5)">
            <path
               d="M 11.88,830.12 H 583.14 V 11.9 H 11.88 Z"
               clip-rule="evenodd"
               id="path17186"
               style="stroke-width:0.06" />
          </g>
        </g>
      </g>
    </clipPath>
    <clipPath
       clipPathUnits="userSpaceOnUse"
       id="clipPath17194">
      <g
         id="g17202">
        <g
           id="g17200"
           transform="translate(0,2e-5)">
          <g
             id="g17198"
             transform="translate(0,2e-5)">
            <path
               d="M 11.88,830.12 H 583.14 V 11.9 H 11.88 Z"
               clip-rule="evenodd"
               id="path17196"
               style="stroke-width:0.06" />
          </g>
        </g>
      </g>
    </clipPath>
    <clipPath
       clipPathUnits="userSpaceOnUse"
       id="clipPath17204">
      <g
         id="g17212">
        <g
           id="g17210"
           transform="translate(0,2e-5)">
          <g
             id="g17208"
             transform="translate(0,2e-5)">
            <path
               d="M 11.88,830.12 H 583.14 V 11.9 H 11.88 Z"
               clip-rule="evenodd"
               id="path17206"
               style="stroke-width:0.06" />
          </g>
        </g>
      </g>
    </clipPath>
    <clipPath
       clipPathUnits="userSpaceOnUse"
       id="clipPath17214">
      <g
         id="g17222">
        <g
           id="g17220"
           transform="translate(0,2e-5)">
          <g
             id="g17218"
             transform="translate(0,2e-5)">
            <path
               d="M 11.88,830.12 H 583.14 V 11.9 H 11.88 Z"
               clip-rule="evenodd"
               id="path17216"
               style="stroke-width:0.06" />
          </g>
        </g>
      </g>
    </clipPath>
    <clipPath
       clipPathUnits="userSpaceOnUse"
       id="clipPath17224">
      <g
         id="g17232">
        <g
           id="g17230"
           transform="translate(0,2e-5)">
          <g
             id="g17228"
             transform="translate(0,2e-5)">
            <path
               d="M 11.88,830.12 H 583.14 V 11.9 H 11.88 Z"
               clip-rule="evenodd"
               id="path17226"
               style="stroke-width:0.06" />
          </g>
        </g>
      </g>
    </clipPath>
    <clipPath
       clipPathUnits="userSpaceOnUse"
       id="clipPath17234">
      <g
         id="g17242">
        <g
           id="g17240"
           transform="translate(0,2e-5)">
          <g
             id="g17238"
             transform="translate(0,2e-5)">
            <path
               d="M 11.88,830.12 H 583.14 V 11.9 H 11.88 Z"
               clip-rule="evenodd"
               id="path17236"
               style="stroke-width:0.06" />
          </g>
        </g>
      </g>
    </clipPath>
    <clipPath
       clipPathUnits="userSpaceOnUse"
       id="clipPath17244">
      <g
         id="g17252">
        <g
           id="g17250"
           transform="translate(0,2e-5)">
          <g
             id="g17248"
             transform="translate(0,2e-5)">
            <path
               d="M 11.88,830.12 H 583.14 V 11.9 H 11.88 Z"
               clip-rule="evenodd"
               id="path17246"
               style="stroke-width:0.06" />
          </g>
        </g>
      </g>
    </clipPath>
    <clipPath
       clipPathUnits="userSpaceOnUse"
       id="clipPath17254">
      <g
         id="g17262">
        <g
           id="g17260"
           transform="translate(0,2e-5)">
          <g
             id="g17258"
             transform="translate(0,2e-5)">
            <path
               d="M 11.88,830.12 H 583.14 V 11.9 H 11.88 Z"
               clip-rule="evenodd"
               id="path17256"
               style="stroke-width:0.06" />
          </g>
        </g>
      </g>
    </clipPath>
    <clipPath
       clipPathUnits="userSpaceOnUse"
       id="clipPath17264">
      <g
         id="g17272">
        <g
           id="g17270"
           transform="translate(0,2e-5)">
          <g
             id="g17268"
             transform="translate(0,2e-5)">
            <path
               d="M 11.88,830.12 H 583.14 V 11.9 H 11.88 Z"
               clip-rule="evenodd"
               id="path17266"
               style="stroke-width:0.06" />
          </g>
        </g>
      </g>
    </clipPath>
    <clipPath
       clipPathUnits="userSpaceOnUse"
       id="clipPath17274">
      <g
         id="g17282">
        <g
           id="g17280"
           transform="translate(0,2e-5)">
          <g
             id="g17278"
             transform="translate(0,2e-5)">
            <path
               d="M 11.88,830.12 H 583.14 V 11.9 H 11.88 Z"
               clip-rule="evenodd"
               id="path17276"
               style="stroke-width:0.06" />
          </g>
        </g>
      </g>
    </clipPath>
    <clipPath
       clipPathUnits="userSpaceOnUse"
       id="clipPath17284">
      <g
         id="g17292">
        <g
           id="g17290"
           transform="translate(0,2e-5)">
          <g
             id="g17288"
             transform="translate(0,2e-5)">
            <path
               d="M 11.88,830.12 H 583.14 V 11.9 H 11.88 Z"
               clip-rule="evenodd"
               id="path17286"
               style="stroke-width:0.06" />
          </g>
        </g>
      </g>
    </clipPath>
    <clipPath
       clipPathUnits="userSpaceOnUse"
       id="clipPath17294">
      <g
         id="g17302">
        <g
           id="g17300"
           transform="translate(0,2e-5)">
          <g
             id="g17298"
             transform="translate(0,2e-5)">
            <path
               d="M 11.88,830.12 H 583.14 V 11.9 H 11.88 Z"
               clip-rule="evenodd"
               id="path17296"
               style="stroke-width:0.06" />
          </g>
        </g>
      </g>
    </clipPath>
    <clipPath
       clipPathUnits="userSpaceOnUse"
       id="clipPath17304">
      <g
         id="g17312">
        <g
           id="g17310"
           transform="translate(0,2e-5)">
          <g
             id="g17308"
             transform="translate(0,2e-5)">
            <path
               d="M 11.88,830.12 H 583.14 V 11.9 H 11.88 Z"
               clip-rule="evenodd"
               id="path17306"
               style="stroke-width:0.06" />
          </g>
        </g>
      </g>
    </clipPath>
    <clipPath
       clipPathUnits="userSpaceOnUse"
       id="clipPath17314">
      <g
         id="g17322">
        <g
           id="g17320"
           transform="translate(0,2e-5)">
          <g
             id="g17318"
             transform="translate(0,2e-5)">
            <path
               d="M 11.88,830.12 H 583.14 V 11.9 H 11.88 Z"
               clip-rule="evenodd"
               id="path17316"
               style="stroke-width:0.06" />
          </g>
        </g>
      </g>
    </clipPath>
    <clipPath
       clipPathUnits="userSpaceOnUse"
       id="clipPath17324">
      <g
         id="g17332">
        <g
           id="g17330"
           transform="translate(0,2e-5)">
          <g
             id="g17328"
             transform="translate(0,2e-5)">
            <path
               d="M 11.88,830.12 H 583.14 V 11.9 H 11.88 Z"
               clip-rule="evenodd"
               id="path17326"
               style="stroke-width:0.06" />
          </g>
        </g>
      </g>
    </clipPath>
    <clipPath
       clipPathUnits="userSpaceOnUse"
       id="clipPath17334">
      <g
         id="g17342">
        <g
           id="g17340"
           transform="translate(0,2e-5)">
          <g
             id="g17338"
             transform="translate(0,2e-5)">
            <path
               d="M 11.88,830.12 H 583.14 V 11.9 H 11.88 Z"
               clip-rule="evenodd"
               id="path17336"
               style="stroke-width:0.06" />
          </g>
        </g>
      </g>
    </clipPath>
    <clipPath
       clipPathUnits="userSpaceOnUse"
       id="clipPath17344">
      <g
         id="g17352">
        <g
           id="g17350"
           transform="translate(0,2e-5)">
          <g
             id="g17348"
             transform="translate(0,2e-5)">
            <path
               d="M 11.88,830.12 H 583.14 V 11.9 H 11.88 Z"
               clip-rule="evenodd"
               id="path17346"
               style="stroke-width:0.06" />
          </g>
        </g>
      </g>
    </clipPath>
    <clipPath
       clipPathUnits="userSpaceOnUse"
       id="clipPath17354">
      <g
         id="g17362">
        <g
           id="g17360"
           transform="translate(0,2e-5)">
          <g
             id="g17358"
             transform="translate(0,2e-5)">
            <path
               d="M 11.88,830.12 H 583.14 V 11.9 H 11.88 Z"
               clip-rule="evenodd"
               id="path17356"
               style="stroke-width:0.06" />
          </g>
        </g>
      </g>
    </clipPath>
    <clipPath
       clipPathUnits="userSpaceOnUse"
       id="clipPath17364">
      <g
         id="g17372">
        <g
           id="g17370"
           transform="translate(0,2e-5)">
          <g
             id="g17368"
             transform="translate(0,2e-5)">
            <path
               d="M 11.88,830.12 H 583.14 V 11.9 H 11.88 Z"
               clip-rule="evenodd"
               id="path17366"
               style="stroke-width:0.06" />
          </g>
        </g>
      </g>
    </clipPath>
    <clipPath
       clipPathUnits="userSpaceOnUse"
       id="clipPath17374">
      <g
         id="g17382">
        <g
           id="g17380"
           transform="translate(0,2e-5)">
          <g
             id="g17378"
             transform="translate(0,2e-5)">
            <path
               d="M 11.88,830.12 H 583.14 V 11.9 H 11.88 Z"
               clip-rule="evenodd"
               id="path17376"
               style="stroke-width:0.06" />
          </g>
        </g>
      </g>
    </clipPath>
    <clipPath
       clipPathUnits="userSpaceOnUse"
       id="clipPath17384">
      <g
         id="g17392">
        <g
           id="g17390"
           transform="translate(0,2e-5)">
          <g
             id="g17388"
             transform="translate(0,2e-5)">
            <path
               d="M 11.88,830.12 H 583.14 V 11.9 H 11.88 Z"
               clip-rule="evenodd"
               id="path17386"
               style="stroke-width:0.06" />
          </g>
        </g>
      </g>
    </clipPath>
    <clipPath
       clipPathUnits="userSpaceOnUse"
       id="clipPath17394">
      <g
         id="g17402">
        <g
           id="g17400"
           transform="translate(0,2e-5)">
          <g
             id="g17398"
             transform="translate(0,2e-5)">
            <path
               d="M 11.88,830.12 H 583.14 V 11.9 H 11.88 Z"
               clip-rule="evenodd"
               id="path17396"
               style="stroke-width:0.06" />
          </g>
        </g>
      </g>
    </clipPath>
    <clipPath
       clipPathUnits="userSpaceOnUse"
       id="clipPath17404">
      <g
         id="g17412">
        <g
           id="g17410"
           transform="translate(0,2e-5)">
          <g
             id="g17408"
             transform="translate(0,2e-5)">
            <path
               d="M 11.88,830.12 H 583.14 V 11.9 H 11.88 Z"
               clip-rule="evenodd"
               id="path17406"
               style="stroke-width:0.06" />
          </g>
        </g>
      </g>
    </clipPath>
    <clipPath
       clipPathUnits="userSpaceOnUse"
       id="clipPath17414">
      <g
         id="g17422">
        <g
           id="g17420"
           transform="translate(0,2e-5)">
          <g
             id="g17418"
             transform="translate(0,2e-5)">
            <path
               d="M 11.88,830.12 H 583.14 V 11.9 H 11.88 Z"
               clip-rule="evenodd"
               id="path17416"
               style="stroke-width:0.06" />
          </g>
        </g>
      </g>
    </clipPath>
    <clipPath
       clipPathUnits="userSpaceOnUse"
       id="clipPath17424">
      <g
         id="g17432">
        <g
           id="g17430"
           transform="translate(0,2e-5)">
          <g
             id="g17428"
             transform="translate(0,2e-5)">
            <path
               d="M 11.88,830.12 H 583.14 V 11.9 H 11.88 Z"
               clip-rule="evenodd"
               id="path17426"
               style="stroke-width:0.06" />
          </g>
        </g>
      </g>
    </clipPath>
    <clipPath
       clipPathUnits="userSpaceOnUse"
       id="clipPath17434">
      <g
         id="g17442">
        <g
           id="g17440"
           transform="translate(0,2e-5)">
          <g
             id="g17438"
             transform="translate(0,2e-5)">
            <path
               d="M 11.88,830.12 H 583.14 V 11.9 H 11.88 Z"
               clip-rule="evenodd"
               id="path17436"
               style="stroke-width:0.06" />
          </g>
        </g>
      </g>
    </clipPath>
    <clipPath
       clipPathUnits="userSpaceOnUse"
       id="clipPath17444">
      <g
         id="g17452">
        <g
           id="g17450"
           transform="translate(0,2e-5)">
          <g
             id="g17448"
             transform="translate(0,2e-5)">
            <path
               d="M 11.88,830.12 H 583.14 V 11.9 H 11.88 Z"
               clip-rule="evenodd"
               id="path17446"
               style="stroke-width:0.06" />
          </g>
        </g>
      </g>
    </clipPath>
  </defs>
  <g
     id="g16260"
     transform="matrix(1.3333333,0,0,-1.3333333,0,1122.6667)">
    <path
       id="path16300"
       clip-path="url(#clipPath17444)"
       style="fill:none;fill-opacity:1;fill-rule:nonzero;stroke:#000000;stroke-width:0.06;stroke-linecap:round;stroke-linejoin:round;stroke-miterlimit:10;stroke-dasharray:none;stroke-opacity:1"
       d="m 426.375,409.20508 c 0.67057,0 1.34115,0 2.01172,0 0,-1.38998 0,-2.77995 0,-4.16992 -0.67057,0 -1.34115,0 -2.01172,0 0,1.38997 0,2.77994 0,4.16992 z" />
    <path
       id="path16302"
       clip-path="url(#clipPath17434)"
       style="fill:none;fill-opacity:1;fill-rule:nonzero;stroke:#000000;stroke-width:0.06;stroke-linecap:round;stroke-linejoin:round;stroke-miterlimit:10;stroke-dasharray:none;stroke-opacity:1"
       d="m 426.375,394.86523 c 0.67057,0 1.34115,0 2.01172,0 0,-1.39062 0,-2.78125 0,-4.17187 -0.67057,0 -1.34115,0 -2.01172,0 0,1.39062 0,2.78125 0,4.17187 z" />
    <path
       id="path16304"
       clip-path="url(#clipPath17424)"
       style="fill:none;fill-opacity:1;fill-rule:nonzero;stroke:#000000;stroke-width:0.06;stroke-linecap:round;stroke-linejoin:round;stroke-miterlimit:10;stroke-dasharray:none;stroke-opacity:1"
       d="m 415.57422,409.20508 c 0.67057,0 1.34114,0 2.01172,0 0,-1.38998 0,-2.77995 0,-4.16992 -0.67058,0 -1.34115,0 -2.01172,0 0,1.38997 0,2.77994 0,4.16992 z" />
    <path
       id="path16306"
       clip-path="url(#clipPath17414)"
       style="fill:none;fill-opacity:1;fill-rule:nonzero;stroke:#000000;stroke-width:0.06;stroke-linecap:round;stroke-linejoin:round;stroke-miterlimit:10;stroke-dasharray:none;stroke-opacity:1"
       d="m 415.57422,394.86523 c 0.67057,0 1.34114,0 2.01172,0 0,-1.39062 0,-2.78125 0,-4.17187 -0.67058,0 -1.34115,0 -2.01172,0 0,1.39062 0,2.78125 0,4.17187 z" />
    <path
       id="path16308"
       clip-path="url(#clipPath17404)"
       style="fill:none;fill-opacity:1;fill-rule:nonzero;stroke:#000000;stroke-width:0.06;stroke-linecap:round;stroke-linejoin:round;stroke-miterlimit:10;stroke-dasharray:none;stroke-opacity:1"
       d="m 328.21484,445.92578 c 1.07032,0 2.14063,0 3.21094,0 0,-0.71029 0,-1.42057 0,-2.13086 -1.07031,0 -2.14062,0 -3.21094,0 0,0.71029 0,1.42057 0,2.13086 z" />
    <path
       id="path16310"
       clip-path="url(#clipPath17394)"
       style="fill:none;fill-opacity:1;fill-rule:nonzero;stroke:#000000;stroke-width:0.06;stroke-linecap:round;stroke-linejoin:round;stroke-miterlimit:10;stroke-dasharray:none;stroke-opacity:1"
       d="m 328.21484,440.82617 c 1.07032,0 2.14063,0 3.21094,0 0,-0.71094 0,-1.42187 0,-2.13281 -1.07031,0 -2.14062,0 -3.21094,0 0,0.71094 0,1.42187 0,2.13281 z" />
    <path
       id="path16312"
       clip-path="url(#clipPath17384)"
       style="fill:none;fill-opacity:1;fill-rule:nonzero;stroke:#000000;stroke-width:0.06;stroke-linecap:round;stroke-linejoin:round;stroke-miterlimit:10;stroke-dasharray:none;stroke-opacity:1"
       d="m 366.43359,445.92578 c 1.07097,0 2.14193,0 3.21289,0 0,-0.71029 0,-1.42057 0,-2.13086 -1.07096,0 -2.14192,0 -3.21289,0 0,0.71029 0,1.42057 0,2.13086 z" />
    <path
       id="path16314"
       clip-path="url(#clipPath17374)"
       style="fill:none;fill-opacity:1;fill-rule:nonzero;stroke:#000000;stroke-width:0.06;stroke-linecap:round;stroke-linejoin:round;stroke-miterlimit:10;stroke-dasharray:none;stroke-opacity:1"
       d="m 366.43359,440.82617 c 1.07097,0 2.14193,0 3.21289,0 0,-0.71094 0,-1.42187 0,-2.13281 -1.07096,0 -2.14192,0 -3.21289,0 0,0.71094 0,1.42187 0,2.13281 z" />
    <path
       id="path16316"
       clip-path="url(#clipPath17364)"
       style="fill:none;fill-opacity:1;fill-rule:nonzero;stroke:#000000;stroke-width:0.06;stroke-linecap:round;stroke-linejoin:round;stroke-miterlimit:10;stroke-dasharray:none;stroke-opacity:1"
       d="m 406.09375,445.92578 c 1.07096,0 2.14193,0 3.21289,0 0,-0.71029 0,-1.42057 0,-2.13086 -1.07096,0 -2.14193,0 -3.21289,0 0,0.71029 0,1.42057 0,2.13086 z" />
    <path
       id="path16318"
       clip-path="url(#clipPath17354)"
       style="fill:none;fill-opacity:1;fill-rule:nonzero;stroke:#000000;stroke-width:0.06;stroke-linecap:round;stroke-linejoin:round;stroke-miterlimit:10;stroke-dasharray:none;stroke-opacity:1"
       d="m 406.09375,440.82617 c 1.07096,0 2.14193,0 3.21289,0 0,-0.71094 0,-1.42187 0,-2.13281 -1.07096,0 -2.14193,0 -3.21289,0 0,0.71094 0,1.42187 0,2.13281 z" />
    <path
       id="path16320"
       clip-path="url(#clipPath17344)"
       style="fill:none;fill-opacity:1;fill-rule:nonzero;stroke:#000000;stroke-width:0.06;stroke-linecap:round;stroke-linejoin:round;stroke-miterlimit:10;stroke-dasharray:none;stroke-opacity:1"
       d="m 328.21484,424.68555 c 1.07032,0 2.14063,0 3.21094,0 0,-0.71029 0,-1.42058 0,-2.13086 -1.07031,0 -2.14062,0 -3.21094,0 0,0.71028 0,1.42057 0,2.13086 z" />
    <path
       id="path16322"
       clip-path="url(#clipPath17334)"
       style="fill:none;fill-opacity:1;fill-rule:nonzero;stroke:#000000;stroke-width:0.06;stroke-linecap:round;stroke-linejoin:round;stroke-miterlimit:10;stroke-dasharray:none;stroke-opacity:1"
       d="m 328.21484,419.58594 c 1.07032,0 2.14063,0 3.21094,0 0,-0.71029 0,-1.42058 0,-2.13086 -1.07031,0 -2.14062,0 -3.21094,0 0,0.71028 0,1.42057 0,2.13086 z" />
    <path
       id="path16324"
       clip-path="url(#clipPath17324)"
       style="fill:none;fill-opacity:1;fill-rule:nonzero;stroke:#000000;stroke-width:0.06;stroke-linecap:round;stroke-linejoin:round;stroke-miterlimit:10;stroke-dasharray:none;stroke-opacity:1"
       d="m 366.43359,424.68555 c 1.07097,0 2.14193,0 3.21289,0 0,-0.71029 0,-1.42058 0,-2.13086 -1.07096,0 -2.14192,0 -3.21289,0 0,0.71028 0,1.42057 0,2.13086 z" />
    <path
       id="path16326"
       clip-path="url(#clipPath17314)"
       style="fill:none;fill-opacity:1;fill-rule:nonzero;stroke:#000000;stroke-width:0.06;stroke-linecap:round;stroke-linejoin:round;stroke-miterlimit:10;stroke-dasharray:none;stroke-opacity:1"
       d="m 366.43359,419.58594 c 1.07097,0 2.14193,0 3.21289,0 0,-0.71029 0,-1.42058 0,-2.13086 -1.07096,0 -2.14192,0 -3.21289,0 0,0.71028 0,1.42057 0,2.13086 z" />
    <path
       id="path16328"
       clip-path="url(#clipPath17304)"
       style="fill:none;fill-opacity:1;fill-rule:nonzero;stroke:#000000;stroke-width:0.06;stroke-linecap:round;stroke-linejoin:round;stroke-miterlimit:10;stroke-dasharray:none;stroke-opacity:1"
       d="m 406.09375,424.68555 c 1.07096,0 2.14193,0 3.21289,0 0,-0.71029 0,-1.42058 0,-2.13086 -1.07096,0 -2.14193,0 -3.21289,0 0,0.71028 0,1.42057 0,2.13086 z" />
    <path
       id="path16330"
       clip-path="url(#clipPath17294)"
       style="fill:none;fill-opacity:1;fill-rule:nonzero;stroke:#000000;stroke-width:0.06;stroke-linecap:round;stroke-linejoin:round;stroke-miterlimit:10;stroke-dasharray:none;stroke-opacity:1"
       d="m 406.09375,419.58594 c 1.07096,0 2.14193,0 3.21289,0 0,-0.71029 0,-1.42058 0,-2.13086 -1.07096,0 -2.14193,0 -3.21289,0 0,0.71028 0,1.42057 0,2.13086 z" />
    <path
       id="path16332"
       clip-path="url(#clipPath17284)"
       style="fill:none;fill-opacity:1;fill-rule:nonzero;stroke:#000000;stroke-width:0.06;stroke-linecap:round;stroke-linejoin:round;stroke-miterlimit:10;stroke-dasharray:none;stroke-opacity:1"
       d="m 329.59375,403.44531 c 1.07096,0 2.14193,0 3.21289,0 0,-0.71028 0,-1.42057 0,-2.13086 -1.07096,0 -2.14193,0 -3.21289,0 0,0.71029 0,1.42058 0,2.13086 z" />
    <path
       id="path16334"
       clip-path="url(#clipPath17274)"
       style="fill:none;fill-opacity:1;fill-rule:nonzero;stroke:#000000;stroke-width:0.06;stroke-linecap:round;stroke-linejoin:round;stroke-miterlimit:10;stroke-dasharray:none;stroke-opacity:1"
       d="m 329.59375,398.3457 c 1.07096,0 2.14193,0 3.21289,0 0,-0.71028 0,-1.42057 0,-2.13086 -1.07096,0 -2.14193,0 -3.21289,0 0,0.71029 0,1.42058 0,2.13086 z" />
    <path
       id="path16336"
       clip-path="url(#clipPath17264)"
       style="fill:none;fill-opacity:1;fill-rule:nonzero;stroke:#000000;stroke-width:0.06;stroke-linecap:round;stroke-linejoin:round;stroke-miterlimit:10;stroke-dasharray:none;stroke-opacity:1"
       d="m 367.875,398.3457 c 1.07031,0 2.14063,0 3.21094,0 0,-0.71028 0,-1.42057 0,-2.13086 -1.07031,0 -2.14063,0 -3.21094,0 0,0.71029 0,1.42058 0,2.13086 z" />
    <path
       id="path16338"
       clip-path="url(#clipPath17254)"
       style="fill:none;fill-opacity:1;fill-rule:nonzero;stroke:#000000;stroke-width:0.06;stroke-linecap:round;stroke-linejoin:round;stroke-miterlimit:10;stroke-dasharray:none;stroke-opacity:1"
       d="m 367.875,403.44531 c 1.07031,0 2.14063,0 3.21094,0 0,-0.71028 0,-1.42057 0,-2.13086 -1.07031,0 -2.14063,0 -3.21094,0 0,0.71029 0,1.42058 0,2.13086 z" />
    <path
       id="path16340"
       clip-path="url(#clipPath17244)"
       style="fill:none;fill-opacity:1;fill-rule:nonzero;stroke:#000000;stroke-width:0.06;stroke-linecap:round;stroke-linejoin:round;stroke-miterlimit:10;stroke-dasharray:none;stroke-opacity:1"
       d="m 407.53516,398.3457 c 1.07031,0 2.14062,0 3.21093,0 0,-0.71028 0,-1.42057 0,-2.13086 -1.07031,0 -2.14062,0 -3.21093,0 0,0.71029 0,1.42058 0,2.13086 z" />
    <path
       id="path16342"
       clip-path="url(#clipPath17234)"
       style="fill:none;fill-opacity:1;fill-rule:nonzero;stroke:#000000;stroke-width:0.06;stroke-linecap:round;stroke-linejoin:round;stroke-miterlimit:10;stroke-dasharray:none;stroke-opacity:1"
       d="m 407.53516,403.44531 c 1.07031,0 2.14062,0 3.21093,0 0,-0.71028 0,-1.42057 0,-2.13086 -1.07031,0 -2.14062,0 -3.21093,0 0,0.71029 0,1.42058 0,2.13086 z" />
    <path
       id="path16344"
       clip-path="url(#clipPath17224)"
       style="fill:none;fill-opacity:1;fill-rule:nonzero;stroke:#000000;stroke-width:0.06;stroke-linecap:round;stroke-linejoin:round;stroke-miterlimit:10;stroke-dasharray:none;stroke-opacity:1"
       d="m 329.59375,376.50586 c 1.07096,0 2.14193,0 3.21289,0 0,-0.71029 0,-1.42057 0,-2.13086 -1.07096,0 -2.14193,0 -3.21289,0 0,0.71029 0,1.42057 0,2.13086 z" />
    <path
       id="path16346"
       clip-path="url(#clipPath17214)"
       style="fill:none;fill-opacity:1;fill-rule:nonzero;stroke:#000000;stroke-width:0.06;stroke-linecap:round;stroke-linejoin:round;stroke-miterlimit:10;stroke-dasharray:none;stroke-opacity:1"
       d="m 329.59375,371.40625 c 1.07096,0 2.14193,0 3.21289,0 0,-0.71094 0,-1.42187 0,-2.13281 -1.07096,0 -2.14193,0 -3.21289,0 0,0.71093 0,1.42187 0,2.13281 z" />
    <path
       id="path16348"
       clip-path="url(#clipPath17204)"
       style="fill:none;fill-opacity:1;fill-rule:nonzero;stroke:#000000;stroke-width:0.06;stroke-linecap:round;stroke-linejoin:round;stroke-miterlimit:10;stroke-dasharray:none;stroke-opacity:1"
       d="m 369.25391,371.40625 c 1.07031,0 2.14062,0 3.21093,0 0,-0.71094 0,-1.42187 0,-2.13281 -1.07031,0 -2.14062,0 -3.21093,0 0,0.71093 0,1.42187 0,2.13281 z" />
    <path
       id="path16350"
       clip-path="url(#clipPath17194)"
       style="fill:none;fill-opacity:1;fill-rule:nonzero;stroke:#000000;stroke-width:0.06;stroke-linecap:round;stroke-linejoin:round;stroke-miterlimit:10;stroke-dasharray:none;stroke-opacity:1"
       d="m 369.25391,376.50586 c 1.07031,0 2.14062,0 3.21093,0 0,-0.71029 0,-1.42057 0,-2.13086 -1.07031,0 -2.14062,0 -3.21093,0 0,0.71029 0,1.42057 0,2.13086 z" />
    <path
       id="path16352"
       clip-path="url(#clipPath17184)"
       style="fill:none;fill-opacity:1;fill-rule:nonzero;stroke:#000000;stroke-width:0.06;stroke-linecap:round;stroke-linejoin:round;stroke-miterlimit:10;stroke-dasharray:none;stroke-opacity:1"
       d="m 407.53516,371.40625 c 1.07031,0 2.14062,0 3.21093,0 0,-0.71094 0,-1.42187 0,-2.13281 -1.07031,0 -2.14062,0 -3.21093,0 0,0.71093 0,1.42187 0,2.13281 z" />
    <path
       id="path16354"
       clip-path="url(#clipPath17174)"
       style="fill:none;fill-opacity:1;fill-rule:nonzero;stroke:#000000;stroke-width:0.06;stroke-linecap:round;stroke-linejoin:round;stroke-miterlimit:10;stroke-dasharray:none;stroke-opacity:1"
       d="m 407.53516,376.50586 c 1.07031,0 2.14062,0 3.21093,0 0,-0.71029 0,-1.42057 0,-2.13086 -1.07031,0 -2.14062,0 -3.21093,0 0,0.71029 0,1.42057 0,2.13086 z" />
    <path
       id="path16356"
       clip-path="url(#clipPath17164)"
       style="fill:none;fill-opacity:1;fill-rule:nonzero;stroke:#000000;stroke-width:0.06;stroke-linecap:round;stroke-linejoin:round;stroke-miterlimit:10;stroke-dasharray:none;stroke-opacity:1"
       d="m 399.01367,505.98633 c 1.07097,0 2.14193,0 3.21289,0 0,-0.71094 0,-1.42188 0,-2.13281 -1.07096,0 -2.14192,0 -3.21289,0 0,0.71093 0,1.42187 0,2.13281 z" />
    <path
       id="path16358"
       clip-path="url(#clipPath17154)"
       style="fill:none;fill-opacity:1;fill-rule:nonzero;stroke:#000000;stroke-width:0.06;stroke-linecap:round;stroke-linejoin:round;stroke-miterlimit:10;stroke-dasharray:none;stroke-opacity:1"
       d="m 399.01367,511.08594 c 1.07097,0 2.14193,0 3.21289,0 0,-0.71029 0,-1.42058 0,-2.13086 -1.07096,0 -2.14192,0 -3.21289,0 0,0.71028 0,1.42057 0,2.13086 z" />
    <path
       id="path16360"
       clip-path="url(#clipPath17144)"
       style="fill:none;fill-opacity:1;fill-rule:nonzero;stroke:#000000;stroke-width:0.06;stroke-linecap:round;stroke-linejoin:round;stroke-miterlimit:10;stroke-dasharray:none;stroke-opacity:1"
       d="m 355.09375,505.98633 c 1.07096,0 2.14193,0 3.21289,0 0,-0.71094 0,-1.42188 0,-2.13281 -1.07096,0 -2.14193,0 -3.21289,0 0,0.71093 0,1.42187 0,2.13281 z" />
    <path
       id="path16362"
       clip-path="url(#clipPath17134)"
       style="fill:none;fill-opacity:1;fill-rule:nonzero;stroke:#000000;stroke-width:0.06;stroke-linecap:round;stroke-linejoin:round;stroke-miterlimit:10;stroke-dasharray:none;stroke-opacity:1"
       d="m 355.09375,511.08594 c 1.07096,0 2.14193,0 3.21289,0 0,-0.71029 0,-1.42058 0,-2.13086 -1.07096,0 -2.14193,0 -3.21289,0 0,0.71028 0,1.42057 0,2.13086 z" />
    <path
       id="path16364"
       clip-path="url(#clipPath17124)"
       style="fill:none;fill-opacity:1;fill-rule:nonzero;stroke:#000000;stroke-width:0.06;stroke-linecap:round;stroke-linejoin:round;stroke-miterlimit:10;stroke-dasharray:none;stroke-opacity:1"
       d="m 329.59375,494.10547 c 1.07096,0 2.14193,0 3.21289,0 0,-0.71029 0,-1.42057 0,-2.13086 -1.07096,0 -2.14193,0 -3.21289,0 0,0.71029 0,1.42057 0,2.13086 z" />
    <path
       id="path16366"
       clip-path="url(#clipPath17114)"
       style="fill:none;fill-opacity:1;fill-rule:nonzero;stroke:#000000;stroke-width:0.06;stroke-linecap:round;stroke-linejoin:round;stroke-miterlimit:10;stroke-dasharray:none;stroke-opacity:1"
       d="m 329.59375,489.00586 c 1.07096,0 2.14193,0 3.21289,0 0,-0.71029 0,-1.42057 0,-2.13086 -1.07096,0 -2.14193,0 -3.21289,0 0,0.71029 0,1.42057 0,2.13086 z" />
    <path
       id="path16368"
       clip-path="url(#clipPath17104)"
       style="fill:none;fill-opacity:1;fill-rule:nonzero;stroke:#000000;stroke-width:0.06;stroke-linecap:round;stroke-linejoin:round;stroke-miterlimit:10;stroke-dasharray:none;stroke-opacity:1"
       d="m 328.21484,469.98633 c 1.07032,0 2.14063,0 3.21094,0 0,-0.71094 0,-1.42188 0,-2.13281 -1.07031,0 -2.14062,0 -3.21094,0 0,0.71093 0,1.42187 0,2.13281 z" />
    <path
       id="path16370"
       clip-path="url(#clipPath17094)"
       style="fill:none;fill-opacity:1;fill-rule:nonzero;stroke:#000000;stroke-width:0.06;stroke-linecap:round;stroke-linejoin:round;stroke-miterlimit:10;stroke-dasharray:none;stroke-opacity:1"
       d="m 328.21484,464.88672 c 1.07032,0 2.14063,0 3.21094,0 0,-0.71094 0,-1.42188 0,-2.13281 -1.07031,0 -2.14062,0 -3.21094,0 0,0.71093 0,1.42187 0,2.13281 z" />
  </g>
</svg>
