<?xml version="1.0" encoding="UTF-8" standalone="no"?>
<!-- Created with Inkscape (http://www.inkscape.org/) -->

<svg
   version="1.1"
   id="svg18102"
   width="793.33331"
   height="1122.6667"
   viewBox="0 0 793.33331 1122.6667"
   xmlns="http://www.w3.org/2000/svg"
   xmlns:svg="http://www.w3.org/2000/svg">
  <defs
     id="defs18106">
    <clipPath
       clipPathUnits="userSpaceOnUse"
       id="clipPath18144">
      <path
         d="M 2216,5199 H 7700 V 8833 H 2216 Z"
         clip-rule="evenodd"
         id="path18142" />
    </clipPath>
    <clipPath
       clipPathUnits="userSpaceOnUse"
       id="clipPath19000">
      <g
         id="g19008">
        <g
           id="g19006"
           transform="translate(0,2e-5)">
          <g
             id="g19004"
             transform="translate(0,2e-5)">
            <path
               d="M 11.88,830.12 H 583.14 V 11.9 H 11.88 Z"
               clip-rule="evenodd"
               id="path19002"
               style="stroke-width:0.06" />
          </g>
        </g>
      </g>
    </clipPath>
    <clipPath
       clipPathUnits="userSpaceOnUse"
       id="clipPath19010">
      <g
         id="g19018">
        <g
           id="g19016"
           transform="translate(0,2e-5)">
          <g
             id="g19014"
             transform="translate(0,2e-5)">
            <path
               d="M 11.88,830.12 H 583.14 V 11.9 H 11.88 Z"
               clip-rule="evenodd"
               id="path19012"
               style="stroke-width:0.06" />
          </g>
        </g>
      </g>
    </clipPath>
    <clipPath
       clipPathUnits="userSpaceOnUse"
       id="clipPath19020">
      <g
         id="g19028">
        <g
           id="g19026"
           transform="translate(0,2e-5)">
          <g
             id="g19024"
             transform="translate(0,2e-5)">
            <path
               d="M 11.88,830.12 H 583.14 V 11.9 H 11.88 Z"
               clip-rule="evenodd"
               id="path19022"
               style="stroke-width:0.06" />
          </g>
        </g>
      </g>
    </clipPath>
    <clipPath
       clipPathUnits="userSpaceOnUse"
       id="clipPath19030">
      <g
         id="g19038">
        <g
           id="g19036"
           transform="translate(0,2e-5)">
          <g
             id="g19034"
             transform="translate(0,2e-5)">
            <path
               d="M 11.88,830.12 H 583.14 V 11.9 H 11.88 Z"
               clip-rule="evenodd"
               id="path19032"
               style="stroke-width:0.06" />
          </g>
        </g>
      </g>
    </clipPath>
    <clipPath
       clipPathUnits="userSpaceOnUse"
       id="clipPath19040">
      <g
         id="g19048">
        <g
           id="g19046"
           transform="translate(0,2e-5)">
          <g
             id="g19044"
             transform="translate(0,2e-5)">
            <path
               d="M 11.88,830.12 H 583.14 V 11.9 H 11.88 Z"
               clip-rule="evenodd"
               id="path19042"
               style="stroke-width:0.06" />
          </g>
        </g>
      </g>
    </clipPath>
    <clipPath
       clipPathUnits="userSpaceOnUse"
       id="clipPath19050">
      <g
         id="g19058">
        <g
           id="g19056"
           transform="translate(0,2e-5)">
          <g
             id="g19054"
             transform="translate(0,2e-5)">
            <path
               d="M 11.88,830.12 H 583.14 V 11.9 H 11.88 Z"
               clip-rule="evenodd"
               id="path19052"
               style="stroke-width:0.06" />
          </g>
        </g>
      </g>
    </clipPath>
    <clipPath
       clipPathUnits="userSpaceOnUse"
       id="clipPath19060">
      <g
         id="g19068">
        <g
           id="g19066"
           transform="translate(0,2e-5)">
          <g
             id="g19064"
             transform="translate(0,2e-5)">
            <path
               d="M 11.88,830.12 H 583.14 V 11.9 H 11.88 Z"
               clip-rule="evenodd"
               id="path19062"
               style="stroke-width:0.06" />
          </g>
        </g>
      </g>
    </clipPath>
    <clipPath
       clipPathUnits="userSpaceOnUse"
       id="clipPath19070">
      <g
         id="g19078">
        <g
           id="g19076"
           transform="translate(0,2e-5)">
          <g
             id="g19074"
             transform="translate(0,2e-5)">
            <path
               d="M 11.88,830.12 H 583.14 V 11.9 H 11.88 Z"
               clip-rule="evenodd"
               id="path19072"
               style="stroke-width:0.06" />
          </g>
        </g>
      </g>
    </clipPath>
    <clipPath
       clipPathUnits="userSpaceOnUse"
       id="clipPath19080">
      <g
         id="g19088">
        <g
           id="g19086"
           transform="translate(0,2e-5)">
          <g
             id="g19084"
             transform="translate(0,2e-5)">
            <path
               d="M 11.88,830.12 H 583.14 V 11.9 H 11.88 Z"
               clip-rule="evenodd"
               id="path19082"
               style="stroke-width:0.06" />
          </g>
        </g>
      </g>
    </clipPath>
    <clipPath
       clipPathUnits="userSpaceOnUse"
       id="clipPath19090">
      <g
         id="g19098">
        <g
           id="g19096"
           transform="translate(0,2e-5)">
          <g
             id="g19094"
             transform="translate(0,2e-5)">
            <path
               d="M 11.88,830.12 H 583.14 V 11.9 H 11.88 Z"
               clip-rule="evenodd"
               id="path19092"
               style="stroke-width:0.06" />
          </g>
        </g>
      </g>
    </clipPath>
    <clipPath
       clipPathUnits="userSpaceOnUse"
       id="clipPath19100">
      <g
         id="g19108">
        <g
           id="g19106"
           transform="translate(0,2e-5)">
          <g
             id="g19104"
             transform="translate(0,2e-5)">
            <path
               d="M 11.88,830.12 H 583.14 V 11.9 H 11.88 Z"
               clip-rule="evenodd"
               id="path19102"
               style="stroke-width:0.06" />
          </g>
        </g>
      </g>
    </clipPath>
    <clipPath
       clipPathUnits="userSpaceOnUse"
       id="clipPath19110">
      <g
         id="g19118">
        <g
           id="g19116"
           transform="translate(0,2e-5)">
          <g
             id="g19114"
             transform="translate(0,2e-5)">
            <path
               d="M 11.88,830.12 H 583.14 V 11.9 H 11.88 Z"
               clip-rule="evenodd"
               id="path19112"
               style="stroke-width:0.06" />
          </g>
        </g>
      </g>
    </clipPath>
    <clipPath
       clipPathUnits="userSpaceOnUse"
       id="clipPath19120">
      <g
         id="g19128">
        <g
           id="g19126"
           transform="translate(0,2e-5)">
          <g
             id="g19124"
             transform="translate(0,2e-5)">
            <path
               d="M 11.88,830.12 H 583.14 V 11.9 H 11.88 Z"
               clip-rule="evenodd"
               id="path19122"
               style="stroke-width:0.06" />
          </g>
        </g>
      </g>
    </clipPath>
    <clipPath
       clipPathUnits="userSpaceOnUse"
       id="clipPath19130">
      <g
         id="g19138">
        <g
           id="g19136"
           transform="translate(0,2e-5)">
          <g
             id="g19134"
             transform="translate(0,2e-5)">
            <path
               d="M 11.88,830.12 H 583.14 V 11.9 H 11.88 Z"
               clip-rule="evenodd"
               id="path19132"
               style="stroke-width:0.06" />
          </g>
        </g>
      </g>
    </clipPath>
    <clipPath
       clipPathUnits="userSpaceOnUse"
       id="clipPath19140">
      <g
         id="g19148">
        <g
           id="g19146"
           transform="translate(0,2e-5)">
          <g
             id="g19144"
             transform="translate(0,2e-5)">
            <path
               d="M 11.88,830.12 H 583.14 V 11.9 H 11.88 Z"
               clip-rule="evenodd"
               id="path19142"
               style="stroke-width:0.06" />
          </g>
        </g>
      </g>
    </clipPath>
    <clipPath
       clipPathUnits="userSpaceOnUse"
       id="clipPath19150">
      <g
         id="g19158">
        <g
           id="g19156"
           transform="translate(0,2e-5)">
          <g
             id="g19154"
             transform="translate(0,2e-5)">
            <path
               d="M 11.88,830.12 H 583.14 V 11.9 H 11.88 Z"
               clip-rule="evenodd"
               id="path19152"
               style="stroke-width:0.06" />
          </g>
        </g>
      </g>
    </clipPath>
    <clipPath
       clipPathUnits="userSpaceOnUse"
       id="clipPath19160">
      <g
         id="g19168">
        <g
           id="g19166"
           transform="translate(0,2e-5)">
          <g
             id="g19164"
             transform="translate(0,2e-5)">
            <path
               d="M 11.88,830.12 H 583.14 V 11.9 H 11.88 Z"
               clip-rule="evenodd"
               id="path19162"
               style="stroke-width:0.06" />
          </g>
        </g>
      </g>
    </clipPath>
    <clipPath
       clipPathUnits="userSpaceOnUse"
       id="clipPath19170">
      <g
         id="g19178">
        <g
           id="g19176"
           transform="translate(0,2e-5)">
          <g
             id="g19174"
             transform="translate(0,2e-5)">
            <path
               d="M 11.88,830.12 H 583.14 V 11.9 H 11.88 Z"
               clip-rule="evenodd"
               id="path19172"
               style="stroke-width:0.06" />
          </g>
        </g>
      </g>
    </clipPath>
    <clipPath
       clipPathUnits="userSpaceOnUse"
       id="clipPath19180">
      <g
         id="g19188">
        <g
           id="g19186"
           transform="translate(0,2e-5)">
          <g
             id="g19184"
             transform="translate(0,2e-5)">
            <path
               d="M 11.88,830.12 H 583.14 V 11.9 H 11.88 Z"
               clip-rule="evenodd"
               id="path19182"
               style="stroke-width:0.06" />
          </g>
        </g>
      </g>
    </clipPath>
    <clipPath
       clipPathUnits="userSpaceOnUse"
       id="clipPath19190">
      <g
         id="g19198">
        <g
           id="g19196"
           transform="translate(0,2e-5)">
          <g
             id="g19194"
             transform="translate(0,2e-5)">
            <path
               d="M 11.88,830.12 H 583.14 V 11.9 H 11.88 Z"
               clip-rule="evenodd"
               id="path19192"
               style="stroke-width:0.06" />
          </g>
        </g>
      </g>
    </clipPath>
    <clipPath
       clipPathUnits="userSpaceOnUse"
       id="clipPath19200">
      <g
         id="g19208">
        <g
           id="g19206"
           transform="translate(0,2e-5)">
          <g
             id="g19204"
             transform="translate(0,2e-5)">
            <path
               d="M 11.88,830.12 H 583.14 V 11.9 H 11.88 Z"
               clip-rule="evenodd"
               id="path19202"
               style="stroke-width:0.06" />
          </g>
        </g>
      </g>
    </clipPath>
    <clipPath
       clipPathUnits="userSpaceOnUse"
       id="clipPath19210">
      <g
         id="g19218">
        <g
           id="g19216"
           transform="translate(0,2e-5)">
          <g
             id="g19214"
             transform="translate(0,2e-5)">
            <path
               d="M 11.88,830.12 H 583.14 V 11.9 H 11.88 Z"
               clip-rule="evenodd"
               id="path19212"
               style="stroke-width:0.06" />
          </g>
        </g>
      </g>
    </clipPath>
    <clipPath
       clipPathUnits="userSpaceOnUse"
       id="clipPath19220">
      <g
         id="g19228">
        <g
           id="g19226"
           transform="translate(0,2e-5)">
          <g
             id="g19224"
             transform="translate(0,2e-5)">
            <path
               d="M 11.88,830.12 H 583.14 V 11.9 H 11.88 Z"
               clip-rule="evenodd"
               id="path19222"
               style="stroke-width:0.06" />
          </g>
        </g>
      </g>
    </clipPath>
    <clipPath
       clipPathUnits="userSpaceOnUse"
       id="clipPath19230">
      <g
         id="g19238">
        <g
           id="g19236"
           transform="translate(0,2e-5)">
          <g
             id="g19234"
             transform="translate(0,2e-5)">
            <path
               d="M 11.88,830.12 H 583.14 V 11.9 H 11.88 Z"
               clip-rule="evenodd"
               id="path19232"
               style="stroke-width:0.06" />
          </g>
        </g>
      </g>
    </clipPath>
    <clipPath
       clipPathUnits="userSpaceOnUse"
       id="clipPath19240">
      <g
         id="g19248">
        <g
           id="g19246"
           transform="translate(0,2e-5)">
          <g
             id="g19244"
             transform="translate(0,2e-5)">
            <path
               d="M 11.88,830.12 H 583.14 V 11.9 H 11.88 Z"
               clip-rule="evenodd"
               id="path19242"
               style="stroke-width:0.06" />
          </g>
        </g>
      </g>
    </clipPath>
    <clipPath
       clipPathUnits="userSpaceOnUse"
       id="clipPath19250">
      <g
         id="g19258">
        <g
           id="g19256"
           transform="translate(0,2e-5)">
          <g
             id="g19254"
             transform="translate(0,2e-5)">
            <path
               d="M 11.88,830.12 H 583.14 V 11.9 H 11.88 Z"
               clip-rule="evenodd"
               id="path19252"
               style="stroke-width:0.06" />
          </g>
        </g>
      </g>
    </clipPath>
    <clipPath
       clipPathUnits="userSpaceOnUse"
       id="clipPath19260">
      <g
         id="g19268">
        <g
           id="g19266"
           transform="translate(0,2e-5)">
          <g
             id="g19264"
             transform="translate(0,2e-5)">
            <path
               d="M 11.88,830.12 H 583.14 V 11.9 H 11.88 Z"
               clip-rule="evenodd"
               id="path19262"
               style="stroke-width:0.06" />
          </g>
        </g>
      </g>
    </clipPath>
    <clipPath
       clipPathUnits="userSpaceOnUse"
       id="clipPath19270">
      <g
         id="g19278">
        <g
           id="g19276"
           transform="translate(0,2e-5)">
          <g
             id="g19274"
             transform="translate(0,2e-5)">
            <path
               d="M 11.88,830.12 H 583.14 V 11.9 H 11.88 Z"
               clip-rule="evenodd"
               id="path19272"
               style="stroke-width:0.06" />
          </g>
        </g>
      </g>
    </clipPath>
    <clipPath
       clipPathUnits="userSpaceOnUse"
       id="clipPath19280">
      <g
         id="g19288">
        <g
           id="g19286"
           transform="translate(0,2e-5)">
          <g
             id="g19284"
             transform="translate(0,2e-5)">
            <path
               d="M 11.88,830.12 H 583.14 V 11.9 H 11.88 Z"
               clip-rule="evenodd"
               id="path19282"
               style="stroke-width:0.06" />
          </g>
        </g>
      </g>
    </clipPath>
    <clipPath
       clipPathUnits="userSpaceOnUse"
       id="clipPath19290">
      <g
         id="g19298">
        <g
           id="g19296"
           transform="translate(0,2e-5)">
          <g
             id="g19294"
             transform="translate(0,2e-5)">
            <path
               d="M 11.88,830.12 H 583.14 V 11.9 H 11.88 Z"
               clip-rule="evenodd"
               id="path19292"
               style="stroke-width:0.06" />
          </g>
        </g>
      </g>
    </clipPath>
    <clipPath
       clipPathUnits="userSpaceOnUse"
       id="clipPath19300">
      <g
         id="g19308">
        <g
           id="g19306"
           transform="translate(0,2e-5)">
          <g
             id="g19304"
             transform="translate(0,2e-5)">
            <path
               d="M 11.88,830.12 H 583.14 V 11.9 H 11.88 Z"
               clip-rule="evenodd"
               id="path19302"
               style="stroke-width:0.06" />
          </g>
        </g>
      </g>
    </clipPath>
    <clipPath
       clipPathUnits="userSpaceOnUse"
       id="clipPath19310">
      <g
         id="g19318">
        <g
           id="g19316"
           transform="translate(0,2e-5)">
          <g
             id="g19314"
             transform="translate(0,2e-5)">
            <path
               d="M 11.88,830.12 H 583.14 V 11.9 H 11.88 Z"
               clip-rule="evenodd"
               id="path19312"
               style="stroke-width:0.06" />
          </g>
        </g>
      </g>
    </clipPath>
    <clipPath
       clipPathUnits="userSpaceOnUse"
       id="clipPath19320">
      <g
         id="g19328">
        <g
           id="g19326"
           transform="translate(0,2e-5)">
          <g
             id="g19324"
             transform="translate(0,2e-5)">
            <path
               d="M 11.88,830.12 H 583.14 V 11.9 H 11.88 Z"
               clip-rule="evenodd"
               id="path19322"
               style="stroke-width:0.06" />
          </g>
        </g>
      </g>
    </clipPath>
    <clipPath
       clipPathUnits="userSpaceOnUse"
       id="clipPath19330">
      <g
         id="g19338">
        <g
           id="g19336"
           transform="translate(0,2e-5)">
          <g
             id="g19334"
             transform="translate(0,2e-5)">
            <path
               d="M 11.88,830.12 H 583.14 V 11.9 H 11.88 Z"
               clip-rule="evenodd"
               id="path19332"
               style="stroke-width:0.06" />
          </g>
        </g>
      </g>
    </clipPath>
    <clipPath
       clipPathUnits="userSpaceOnUse"
       id="clipPath19340">
      <g
         id="g19348">
        <g
           id="g19346"
           transform="translate(0,2e-5)">
          <g
             id="g19344"
             transform="translate(0,2e-5)">
            <path
               d="M 11.88,830.12 H 583.14 V 11.9 H 11.88 Z"
               clip-rule="evenodd"
               id="path19342"
               style="stroke-width:0.06" />
          </g>
        </g>
      </g>
    </clipPath>
    <clipPath
       clipPathUnits="userSpaceOnUse"
       id="clipPath19350">
      <g
         id="g19358">
        <g
           id="g19356"
           transform="translate(0,2e-5)">
          <g
             id="g19354"
             transform="translate(0,2e-5)">
            <path
               d="M 11.88,830.12 H 583.14 V 11.9 H 11.88 Z"
               clip-rule="evenodd"
               id="path19352"
               style="stroke-width:0.06" />
          </g>
        </g>
      </g>
    </clipPath>
    <clipPath
       clipPathUnits="userSpaceOnUse"
       id="clipPath19360">
      <g
         id="g19368">
        <g
           id="g19366"
           transform="translate(0,2e-5)">
          <g
             id="g19364"
             transform="translate(0,2e-5)">
            <path
               d="M 11.88,830.12 H 583.14 V 11.9 H 11.88 Z"
               clip-rule="evenodd"
               id="path19362"
               style="stroke-width:0.06" />
          </g>
        </g>
      </g>
    </clipPath>
    <clipPath
       clipPathUnits="userSpaceOnUse"
       id="clipPath19370">
      <g
         id="g19378">
        <g
           id="g19376"
           transform="translate(0,2e-5)">
          <g
             id="g19374"
             transform="translate(0,2e-5)">
            <path
               d="M 11.88,830.12 H 583.14 V 11.9 H 11.88 Z"
               clip-rule="evenodd"
               id="path19372"
               style="stroke-width:0.06" />
          </g>
        </g>
      </g>
    </clipPath>
    <clipPath
       clipPathUnits="userSpaceOnUse"
       id="clipPath19380">
      <g
         id="g19388">
        <g
           id="g19386"
           transform="translate(0,2e-5)">
          <g
             id="g19384"
             transform="translate(0,2e-5)">
            <path
               d="M 11.88,830.12 H 583.14 V 11.9 H 11.88 Z"
               clip-rule="evenodd"
               id="path19382"
               style="stroke-width:0.06" />
          </g>
        </g>
      </g>
    </clipPath>
    <clipPath
       clipPathUnits="userSpaceOnUse"
       id="clipPath19390">
      <g
         id="g19398">
        <g
           id="g19396"
           transform="translate(0,2e-5)">
          <g
             id="g19394"
             transform="translate(0,2e-5)">
            <path
               d="M 11.88,830.12 H 583.14 V 11.9 H 11.88 Z"
               clip-rule="evenodd"
               id="path19392"
               style="stroke-width:0.06" />
          </g>
        </g>
      </g>
    </clipPath>
    <clipPath
       clipPathUnits="userSpaceOnUse"
       id="clipPath19400">
      <g
         id="g19408">
        <g
           id="g19406"
           transform="translate(0,2e-5)">
          <g
             id="g19404"
             transform="translate(0,2e-5)">
            <path
               d="M 11.88,830.12 H 583.14 V 11.9 H 11.88 Z"
               clip-rule="evenodd"
               id="path19402"
               style="stroke-width:0.06" />
          </g>
        </g>
      </g>
    </clipPath>
    <clipPath
       clipPathUnits="userSpaceOnUse"
       id="clipPath19410">
      <g
         id="g19418">
        <g
           id="g19416"
           transform="translate(0,2e-5)">
          <g
             id="g19414"
             transform="translate(0,2e-5)">
            <path
               d="M 11.88,830.12 H 583.14 V 11.9 H 11.88 Z"
               clip-rule="evenodd"
               id="path19412"
               style="stroke-width:0.06" />
          </g>
        </g>
      </g>
    </clipPath>
    <clipPath
       clipPathUnits="userSpaceOnUse"
       id="clipPath19420">
      <g
         id="g19428">
        <g
           id="g19426"
           transform="translate(0,2e-5)">
          <g
             id="g19424"
             transform="translate(0,2e-5)">
            <path
               d="M 11.88,830.12 H 583.14 V 11.9 H 11.88 Z"
               clip-rule="evenodd"
               id="path19422"
               style="stroke-width:0.06" />
          </g>
        </g>
      </g>
    </clipPath>
    <clipPath
       clipPathUnits="userSpaceOnUse"
       id="clipPath19430">
      <g
         id="g19438">
        <g
           id="g19436"
           transform="translate(0,2e-5)">
          <g
             id="g19434"
             transform="translate(0,2e-5)">
            <path
               d="M 11.88,830.12 H 583.14 V 11.9 H 11.88 Z"
               clip-rule="evenodd"
               id="path19432"
               style="stroke-width:0.06" />
          </g>
        </g>
      </g>
    </clipPath>
  </defs>
  <g
     id="g18110"
     transform="matrix(1.3333333,0,0,-1.3333333,0,1122.6667)">
    <path
       id="path18150"
       clip-path="url(#clipPath19430)"
       style="fill:none;fill-opacity:1;fill-rule:nonzero;stroke:#000000;stroke-width:0.06;stroke-linecap:round;stroke-linejoin:round;stroke-miterlimit:10;stroke-dasharray:none;stroke-opacity:1"
       d="m 343.27344,419.58594 c 0.67057,0 1.34114,0 2.01172,0 0,-1.39063 0,-2.78125 0,-4.17188 -0.67058,0 -1.34115,0 -2.01172,0 0,1.39063 0,2.78125 0,4.17188 z" />
    <path
       id="path18152"
       clip-path="url(#clipPath19420)"
       style="fill:none;fill-opacity:1;fill-rule:nonzero;stroke:#000000;stroke-width:0.06;stroke-linecap:round;stroke-linejoin:round;stroke-miterlimit:10;stroke-dasharray:none;stroke-opacity:1"
       d="m 343.27344,405.24609 c 0.67057,0 1.34114,0 2.01172,0 0,-1.39062 0,-2.78125 0,-4.17187 -0.67058,0 -1.34115,0 -2.01172,0 0,1.39062 0,2.78125 0,4.17187 z" />
    <path
       id="path18154"
       clip-path="url(#clipPath19410)"
       style="fill:none;fill-opacity:1;fill-rule:nonzero;stroke:#000000;stroke-width:0.06;stroke-linecap:round;stroke-linejoin:round;stroke-miterlimit:10;stroke-dasharray:none;stroke-opacity:1"
       d="m 332.47461,419.58594 c 0.67057,0 1.34115,0 2.01172,0 0,-1.39063 0,-2.78125 0,-4.17188 -0.67057,0 -1.34115,0 -2.01172,0 0,1.39063 0,2.78125 0,4.17188 z" />
    <path
       id="path18156"
       clip-path="url(#clipPath19400)"
       style="fill:none;fill-opacity:1;fill-rule:nonzero;stroke:#000000;stroke-width:0.06;stroke-linecap:round;stroke-linejoin:round;stroke-miterlimit:10;stroke-dasharray:none;stroke-opacity:1"
       d="m 332.47461,405.24609 c 0.67057,0 1.34115,0 2.01172,0 0,-1.39062 0,-2.78125 0,-4.17187 -0.67057,0 -1.34115,0 -2.01172,0 0,1.39062 0,2.78125 0,4.17187 z" />
    <path
       id="path18158"
       clip-path="url(#clipPath19390)"
       style="fill:none;fill-opacity:1;fill-rule:nonzero;stroke:#000000;stroke-width:0.06;stroke-linecap:round;stroke-linejoin:round;stroke-miterlimit:10;stroke-dasharray:none;stroke-opacity:1"
       d="m 248.05469,474.8457 c 1.07031,0 2.14062,0 3.21093,0 0,-0.71028 0,-1.42057 0,-2.13086 -1.07031,0 -2.14062,0 -3.21093,0 0,0.71029 0,1.42058 0,2.13086 z" />
    <path
       id="path18160"
       clip-path="url(#clipPath19380)"
       style="fill:none;fill-opacity:1;fill-rule:nonzero;stroke:#000000;stroke-width:0.06;stroke-linecap:round;stroke-linejoin:round;stroke-miterlimit:10;stroke-dasharray:none;stroke-opacity:1"
       d="m 248.05469,479.94531 c 1.07031,0 2.14062,0 3.21093,0 0,-0.71028 10e-6,-1.42057 0,-2.13086 -1.07031,0 -2.14062,0 -3.21093,0 0,0.71029 0,1.42058 0,2.13086 z" />
    <path
       id="path18162"
       clip-path="url(#clipPath19370)"
       style="fill:none;fill-opacity:1;fill-rule:nonzero;stroke:#000000;stroke-width:0.06;stroke-linecap:round;stroke-linejoin:round;stroke-miterlimit:10;stroke-dasharray:none;stroke-opacity:1"
       d="m 287.77344,474.72656 c 1.07096,0 2.14192,0 3.21289,0 0,-0.71093 0,-1.42187 0,-2.13281 -1.07097,0 -2.14193,0 -3.21289,0 0,0.71094 0,1.42188 0,2.13281 z" />
    <path
       id="path18164"
       clip-path="url(#clipPath19360)"
       style="fill:none;fill-opacity:1;fill-rule:nonzero;stroke:#000000;stroke-width:0.06;stroke-linecap:round;stroke-linejoin:round;stroke-miterlimit:10;stroke-dasharray:none;stroke-opacity:1"
       d="m 287.77344,479.82617 c 1.07096,0 2.14192,0 3.21289,0 0,-0.71094 0,-1.42187 0,-2.13281 -1.07097,0 -2.14193,0 -3.21289,0 0,0.71094 0,1.42187 0,2.13281 z" />
    <path
       id="path18166"
       clip-path="url(#clipPath19350)"
       style="fill:none;fill-opacity:1;fill-rule:nonzero;stroke:#000000;stroke-width:0.06;stroke-linecap:round;stroke-linejoin:round;stroke-miterlimit:10;stroke-dasharray:none;stroke-opacity:1"
       d="m 323.71484,474.30664 c 1.07032,0 2.14063,0 3.21094,0 0,-0.71094 0,-1.42187 0,-2.13281 -1.07031,0 -2.14062,0 -3.21094,0 0,0.71094 0,1.42187 0,2.13281 z" />
    <path
       id="path18168"
       clip-path="url(#clipPath19340)"
       style="fill:none;fill-opacity:1;fill-rule:nonzero;stroke:#000000;stroke-width:0.06;stroke-linecap:round;stroke-linejoin:round;stroke-miterlimit:10;stroke-dasharray:none;stroke-opacity:1"
       d="m 323.71484,479.40625 c 1.07032,0 2.14063,0 3.21094,0 0,-0.71094 0,-1.42187 0,-2.13281 -1.07031,0 -2.14062,0 -3.21094,0 0,0.71094 0,1.42187 0,2.13281 z" />
    <path
       id="path18170"
       clip-path="url(#clipPath19330)"
       style="fill:none;fill-opacity:1;fill-rule:nonzero;stroke:#000000;stroke-width:0.06;stroke-linecap:round;stroke-linejoin:round;stroke-miterlimit:10;stroke-dasharray:none;stroke-opacity:1"
       d="m 247.81445,451.08594 c 1.07032,0 2.14063,0 3.21094,0 0,-0.71029 0,-1.42058 0,-2.13086 -1.07031,0 -2.14062,0 -3.21094,0 0,0.71028 0,1.42057 0,2.13086 z" />
    <path
       id="path18172"
       clip-path="url(#clipPath19320)"
       style="fill:none;fill-opacity:1;fill-rule:nonzero;stroke:#000000;stroke-width:0.06;stroke-linecap:round;stroke-linejoin:round;stroke-miterlimit:10;stroke-dasharray:none;stroke-opacity:1"
       d="m 247.81445,456.18555 c 1.07032,0 2.14063,0 3.21094,0 0,-0.71029 0,-1.42058 0,-2.13086 -1.07031,0 -2.14062,0 -3.21094,0 0,0.71028 0,1.42057 0,2.13086 z" />
    <path
       id="path18174"
       clip-path="url(#clipPath19310)"
       style="fill:none;fill-opacity:1;fill-rule:nonzero;stroke:#000000;stroke-width:0.06;stroke-linecap:round;stroke-linejoin:round;stroke-miterlimit:10;stroke-dasharray:none;stroke-opacity:1"
       d="m 287.77344,451.08594 c 1.07096,0 2.14192,0 3.21289,0 0,-0.71029 0,-1.42058 0,-2.13086 -1.07097,0 -2.14193,0 -3.21289,0 0,0.71028 0,1.42057 0,2.13086 z" />
    <path
       id="path18176"
       clip-path="url(#clipPath19300)"
       style="fill:none;fill-opacity:1;fill-rule:nonzero;stroke:#000000;stroke-width:0.06;stroke-linecap:round;stroke-linejoin:round;stroke-miterlimit:10;stroke-dasharray:none;stroke-opacity:1"
       d="m 287.77344,456.18555 c 1.07096,0 2.14192,0 3.21289,0 0,-0.71029 0,-1.42058 0,-2.13086 -1.07097,0 -2.14193,0 -3.21289,0 0,0.71028 0,1.42057 0,2.13086 z" />
    <path
       id="path18178"
       clip-path="url(#clipPath19290)"
       style="fill:none;fill-opacity:1;fill-rule:nonzero;stroke:#000000;stroke-width:0.06;stroke-linecap:round;stroke-linejoin:round;stroke-miterlimit:10;stroke-dasharray:none;stroke-opacity:1"
       d="m 324.73438,450.78516 c 1.07031,0 2.14062,0 3.21093,0 0,-0.71029 0,-1.42058 0,-2.13086 -1.07031,0 -2.14062,0 -3.21093,0 -10e-6,0.71028 0,1.42057 0,2.13086 z" />
    <path
       id="path18180"
       clip-path="url(#clipPath19280)"
       style="fill:none;fill-opacity:1;fill-rule:nonzero;stroke:#000000;stroke-width:0.06;stroke-linecap:round;stroke-linejoin:round;stroke-miterlimit:10;stroke-dasharray:none;stroke-opacity:1"
       d="m 324.73438,455.88672 c 1.07031,0 2.14062,0 3.21093,0 0,-0.71094 0,-1.42188 0,-2.13281 -1.07031,0 -2.14062,0 -3.21093,0 0,0.71093 -10e-6,1.42187 0,2.13281 z" />
    <path
       id="path18182"
       clip-path="url(#clipPath19270)"
       style="fill:none;fill-opacity:1;fill-rule:nonzero;stroke:#000000;stroke-width:0.06;stroke-linecap:round;stroke-linejoin:round;stroke-miterlimit:10;stroke-dasharray:none;stroke-opacity:1"
       d="m 315.91406,516.36523 c 1.07031,0 2.14063,0 3.21094,0 0,-0.71028 0,-1.42057 0,-2.13085 -1.07031,0 -2.14062,-10e-6 -3.21094,0 0,0.71028 0,1.42057 0,2.13085 z" />
    <path
       id="path18184"
       clip-path="url(#clipPath19260)"
       style="fill:none;fill-opacity:1;fill-rule:nonzero;stroke:#000000;stroke-width:0.06;stroke-linecap:round;stroke-linejoin:round;stroke-miterlimit:10;stroke-dasharray:none;stroke-opacity:1"
       d="m 315.91406,521.46484 c 1.07031,0 2.14063,0 3.21094,0 0,-0.71028 0,-1.42057 0,-2.13086 -1.07031,0 -2.14062,0 -3.21094,0 0,0.71029 0,1.42058 0,2.13086 z" />
    <path
       id="path18186"
       clip-path="url(#clipPath19250)"
       style="fill:none;fill-opacity:1;fill-rule:nonzero;stroke:#000000;stroke-width:0.06;stroke-linecap:round;stroke-linejoin:round;stroke-miterlimit:10;stroke-dasharray:none;stroke-opacity:1"
       d="m 271.99414,516.36523 c 1.07031,0 2.14063,0 3.21094,0 0,-0.71028 0,-1.42057 0,-2.13085 -1.07031,-10e-6 -2.14063,0 -3.21094,0 0,0.71028 0,1.42057 0,2.13085 z" />
    <path
       id="path18188"
       clip-path="url(#clipPath19240)"
       style="fill:none;fill-opacity:1;fill-rule:nonzero;stroke:#000000;stroke-width:0.06;stroke-linecap:round;stroke-linejoin:round;stroke-miterlimit:10;stroke-dasharray:none;stroke-opacity:1"
       d="m 271.99414,521.46484 c 1.07031,0 2.14063,0 3.21094,0 0,-0.71028 0,-1.42057 0,-2.13086 -1.07031,0 -2.14063,0 -3.21094,0 0,0.71029 0,1.42058 0,2.13086 z" />
    <path
       id="path18190"
       clip-path="url(#clipPath19230)"
       style="fill:none;fill-opacity:1;fill-rule:nonzero;stroke:#000000;stroke-width:0.06;stroke-linecap:round;stroke-linejoin:round;stroke-miterlimit:10;stroke-dasharray:none;stroke-opacity:1"
       d="m 240.55469,500.04492 c 1.07031,0 2.14062,0 3.21093,0 0,-0.71028 0,-1.42057 0,-2.13086 -1.07031,0 -2.14062,0 -3.21093,0 0,0.71029 0,1.42058 0,2.13086 z" />
    <path
       id="path18192"
       clip-path="url(#clipPath19220)"
       style="fill:none;fill-opacity:1;fill-rule:nonzero;stroke:#000000;stroke-width:0.06;stroke-linecap:round;stroke-linejoin:round;stroke-miterlimit:10;stroke-dasharray:none;stroke-opacity:1"
       d="m 240.55469,505.14648 c 1.07031,0 2.14062,0 3.21093,0 0,-0.71093 10e-6,-1.42187 0,-2.13281 -1.07031,0 -2.14062,0 -3.21093,0 0,0.71094 0,1.42188 0,2.13281 z" />
    <path
       id="path18194"
       clip-path="url(#clipPath19210)"
       style="fill:none;fill-opacity:1;fill-rule:nonzero;stroke:#000000;stroke-width:0.06;stroke-linecap:round;stroke-linejoin:round;stroke-miterlimit:10;stroke-dasharray:none;stroke-opacity:1"
       d="m 300.49414,497.64648 c 1.07031,0 2.14063,0 3.21094,0 0,-0.71093 0,-1.42187 0,-2.13281 -1.07031,0 -2.14063,0 -3.21094,0 0,0.71094 0,1.42188 0,2.13281 z" />
    <path
       id="path18196"
       clip-path="url(#clipPath19200)"
       style="fill:none;fill-opacity:1;fill-rule:nonzero;stroke:#000000;stroke-width:0.06;stroke-linecap:round;stroke-linejoin:round;stroke-miterlimit:10;stroke-dasharray:none;stroke-opacity:1"
       d="m 300.49414,502.74609 c 1.07031,0 2.14063,0 3.21094,0 0,-0.71093 0,-1.42187 0,-2.13281 -1.07031,0 -2.14063,0 -3.21094,0 0,0.71094 0,1.42188 0,2.13281 z" />
    <path
       id="path18198"
       clip-path="url(#clipPath19190)"
       style="fill:none;fill-opacity:1;fill-rule:nonzero;stroke:#000000;stroke-width:0.06;stroke-linecap:round;stroke-linejoin:round;stroke-miterlimit:10;stroke-dasharray:none;stroke-opacity:1"
       d="m 247.93359,427.80664 c 1.07097,0 2.14193,0 3.21289,0 0,-0.71094 0,-1.42187 0,-2.13281 -1.07096,0 -2.14192,0 -3.21289,0 0,0.71094 0,1.42187 0,2.13281 z" />
    <path
       id="path18200"
       clip-path="url(#clipPath19180)"
       style="fill:none;fill-opacity:1;fill-rule:nonzero;stroke:#000000;stroke-width:0.06;stroke-linecap:round;stroke-linejoin:round;stroke-miterlimit:10;stroke-dasharray:none;stroke-opacity:1"
       d="m 247.93359,432.90625 c 1.07097,0 2.14193,0 3.21289,0 0,-0.71094 0,-1.42187 0,-2.13281 -1.07096,0 -2.14192,0 -3.21289,0 0,0.71094 0,1.42187 0,2.13281 z" />
    <path
       id="path18202"
       clip-path="url(#clipPath19170)"
       style="fill:none;fill-opacity:1;fill-rule:nonzero;stroke:#000000;stroke-width:0.06;stroke-linecap:round;stroke-linejoin:round;stroke-miterlimit:10;stroke-dasharray:none;stroke-opacity:1"
       d="m 287.59375,428.22656 c 1.07096,0 2.14193,0 3.21289,0 0,-0.71094 0,-1.42187 0,-2.13281 -1.07096,0 -2.14193,0 -3.21289,0 0,0.71094 0,1.42187 0,2.13281 z" />
    <path
       id="path18204"
       clip-path="url(#clipPath19160)"
       style="fill:none;fill-opacity:1;fill-rule:nonzero;stroke:#000000;stroke-width:0.06;stroke-linecap:round;stroke-linejoin:round;stroke-miterlimit:10;stroke-dasharray:none;stroke-opacity:1"
       d="m 287.59375,433.32617 c 1.07096,0 2.14193,0 3.21289,0 0,-0.71094 0,-1.42187 0,-2.13281 -1.07096,0 -2.14193,0 -3.21289,0 0,0.71094 0,1.42187 0,2.13281 z" />
    <path
       id="path18206"
       clip-path="url(#clipPath19150)"
       style="fill:none;fill-opacity:1;fill-rule:nonzero;stroke:#000000;stroke-width:0.06;stroke-linecap:round;stroke-linejoin:round;stroke-miterlimit:10;stroke-dasharray:none;stroke-opacity:1"
       d="m 324.43359,427.38672 c 1.07097,0 2.14193,0 3.21289,0 0,-0.71094 0,-1.42188 0,-2.13281 -1.07096,0 -2.14192,0 -3.21289,0 0,0.71093 0,1.42187 0,2.13281 z" />
    <path
       id="path18208"
       clip-path="url(#clipPath19140)"
       style="fill:none;fill-opacity:1;fill-rule:nonzero;stroke:#000000;stroke-width:0.06;stroke-linecap:round;stroke-linejoin:round;stroke-miterlimit:10;stroke-dasharray:none;stroke-opacity:1"
       d="m 324.43359,432.48633 c 1.07097,0 2.14193,0 3.21289,0 0,-0.71094 0,-1.42188 0,-2.13281 -1.07096,0 -2.14192,0 -3.21289,0 0,0.71093 0,1.42187 0,2.13281 z" />
    <path
       id="path18210"
       clip-path="url(#clipPath19130)"
       style="fill:none;fill-opacity:1;fill-rule:nonzero;stroke:#000000;stroke-width:0.06;stroke-linecap:round;stroke-linejoin:round;stroke-miterlimit:10;stroke-dasharray:none;stroke-opacity:1"
       d="m 248.23438,405.60547 c 1.07031,0 2.14062,0 3.21093,0 0,-0.71029 0,-1.42057 0,-2.13086 -1.07031,0 -2.14062,0 -3.21093,0 0,0.71029 -10e-6,1.42057 0,2.13086 z" />
    <path
       id="path18212"
       clip-path="url(#clipPath19120)"
       style="fill:none;fill-opacity:1;fill-rule:nonzero;stroke:#000000;stroke-width:0.06;stroke-linecap:round;stroke-linejoin:round;stroke-miterlimit:10;stroke-dasharray:none;stroke-opacity:1"
       d="m 248.23438,410.70508 c 1.07031,0 2.14062,0 3.21093,0 0,-0.71029 0,-1.42057 0,-2.13086 -1.07031,0 -2.14062,0 -3.21093,0 0,0.71029 0,1.42057 0,2.13086 z" />
    <path
       id="path18214"
       clip-path="url(#clipPath19110)"
       style="fill:none;fill-opacity:1;fill-rule:nonzero;stroke:#000000;stroke-width:0.06;stroke-linecap:round;stroke-linejoin:round;stroke-miterlimit:10;stroke-dasharray:none;stroke-opacity:1"
       d="m 286.875,405.30664 c 1.07031,0 2.14063,0 3.21094,0 0,-0.71094 0,-1.42187 0,-2.13281 -1.07032,0 -2.14063,0 -3.21094,0 0,0.71094 0,1.42187 0,2.13281 z" />
    <path
       id="path18216"
       clip-path="url(#clipPath19100)"
       style="fill:none;fill-opacity:1;fill-rule:nonzero;stroke:#000000;stroke-width:0.06;stroke-linecap:round;stroke-linejoin:round;stroke-miterlimit:10;stroke-dasharray:none;stroke-opacity:1"
       d="m 286.875,410.40625 c 1.07031,0 2.14063,0 3.21094,0 0,-0.71094 0,-1.42187 0,-2.13281 -1.07032,0 -2.14063,0 -3.21094,0 0,0.71094 0,1.42187 0,2.13281 z" />
    <path
       id="path18218"
       clip-path="url(#clipPath19090)"
       style="fill:none;fill-opacity:1;fill-rule:nonzero;stroke:#000000;stroke-width:0.06;stroke-linecap:round;stroke-linejoin:round;stroke-miterlimit:10;stroke-dasharray:none;stroke-opacity:1"
       d="m 323.71484,404.58594 c 1.07032,0 2.14063,0 3.21094,0 0,-0.71029 0,-1.42058 0,-2.13086 -1.07031,0 -2.14062,0 -3.21094,0 0,0.71028 0,1.42057 0,2.13086 z" />
    <path
       id="path18220"
       clip-path="url(#clipPath19080)"
       style="fill:none;fill-opacity:1;fill-rule:nonzero;stroke:#000000;stroke-width:0.06;stroke-linecap:round;stroke-linejoin:round;stroke-miterlimit:10;stroke-dasharray:none;stroke-opacity:1"
       d="m 323.71484,409.68555 c 1.07032,0 2.14063,0 3.21094,0 0,-0.71029 0,-1.42058 0,-2.13086 -1.07031,0 -2.14062,0 -3.21094,0 0,0.71028 0,1.42057 0,2.13086 z" />
    <path
       id="path18222"
       clip-path="url(#clipPath19070)"
       style="fill:none;fill-opacity:1;fill-rule:nonzero;stroke:#000000;stroke-width:0.06;stroke-linecap:round;stroke-linejoin:round;stroke-miterlimit:10;stroke-dasharray:none;stroke-opacity:1"
       d="m 247.39453,381.78516 c 1.07031,0 2.14063,0 3.21094,0 0,-0.71029 0,-1.42058 0,-2.13086 -1.07031,0 -2.14063,0 -3.21094,0 0,0.71028 0,1.42057 0,2.13086 z" />
    <path
       id="path18224"
       clip-path="url(#clipPath19060)"
       style="fill:none;fill-opacity:1;fill-rule:nonzero;stroke:#000000;stroke-width:0.06;stroke-linecap:round;stroke-linejoin:round;stroke-miterlimit:10;stroke-dasharray:none;stroke-opacity:1"
       d="m 247.39453,386.88672 c 1.07031,0 2.14063,0 3.21094,0 0,-0.71094 0,-1.42188 0,-2.13281 -1.07031,0 -2.14063,0 -3.21094,0 0,0.71093 0,1.42187 0,2.13281 z" />
    <path
       id="path18226"
       clip-path="url(#clipPath19050)"
       style="fill:none;fill-opacity:1;fill-rule:nonzero;stroke:#000000;stroke-width:0.06;stroke-linecap:round;stroke-linejoin:round;stroke-miterlimit:10;stroke-dasharray:none;stroke-opacity:1"
       d="m 287.47461,381.48633 c 1.07031,0 2.14062,0 3.21094,0 0,-0.71094 0,-1.42188 0,-2.13281 -1.07032,0 -2.14063,0 -3.21094,0 0,0.71093 0,1.42187 0,2.13281 z" />
    <path
       id="path18228"
       clip-path="url(#clipPath19040)"
       style="fill:none;fill-opacity:1;fill-rule:nonzero;stroke:#000000;stroke-width:0.06;stroke-linecap:round;stroke-linejoin:round;stroke-miterlimit:10;stroke-dasharray:none;stroke-opacity:1"
       d="m 287.47461,386.58594 c 1.07031,0 2.14062,0 3.21094,0 0,-0.71029 0,-1.42058 0,-2.13086 -1.07032,0 -2.14063,0 -3.21094,0 0,0.71028 0,1.42057 0,2.13086 z" />
    <path
       id="path18230"
       clip-path="url(#clipPath19030)"
       style="fill:none;fill-opacity:1;fill-rule:nonzero;stroke:#000000;stroke-width:0.06;stroke-linecap:round;stroke-linejoin:round;stroke-miterlimit:10;stroke-dasharray:none;stroke-opacity:1"
       d="m 324.97461,381.24609 c 1.07031,0 2.14062,0 3.21094,0 0,-0.71093 0,-1.42187 0,-2.13281 -1.07032,0 -2.14063,0 -3.21094,0 0,0.71094 0,1.42188 0,2.13281 z" />
    <path
       id="path18232"
       clip-path="url(#clipPath19020)"
       style="fill:none;fill-opacity:1;fill-rule:nonzero;stroke:#000000;stroke-width:0.06;stroke-linecap:round;stroke-linejoin:round;stroke-miterlimit:10;stroke-dasharray:none;stroke-opacity:1"
       d="m 324.97461,386.3457 c 1.07031,0 2.14062,0 3.21094,0 0,-0.71028 0,-1.42057 0,-2.13086 -1.07032,0 -2.14063,0 -3.21094,0 0,0.71029 0,1.42058 0,2.13086 z" />
    <path
       id="path18234"
       clip-path="url(#clipPath19010)"
       style="fill:none;fill-opacity:1;fill-rule:nonzero;stroke:#000000;stroke-width:0.06;stroke-linecap:round;stroke-linejoin:round;stroke-miterlimit:10;stroke-dasharray:none;stroke-opacity:1"
       d="m 313.93359,510.24609 c 0.71094,0 1.42188,0 2.13282,0 0,-1.07031 0,-2.14062 0,-3.21093 -0.71094,0 -1.42188,0 -2.13282,0 0,1.07031 0,2.14062 0,3.21093 z" />
    <path
       id="path18236"
       clip-path="url(#clipPath19000)"
       style="fill:none;fill-opacity:1;fill-rule:nonzero;stroke:#000000;stroke-width:0.06;stroke-linecap:round;stroke-linejoin:round;stroke-miterlimit:10;stroke-dasharray:none;stroke-opacity:1"
       d="m 319.03516,510.24609 c 0.71028,0 1.42057,0 2.13086,0 0,-1.07031 0,-2.14062 0,-3.21093 -0.71029,0 -1.42058,0 -2.13086,0 0,1.07031 0,2.14062 0,3.21093 z" />
  </g>
</svg>
